<mxfile host="app.diagrams.net" modified="2022-11-02T19:45:59.823Z" agent="5.0 (Windows NT 10.0; Win64; x64) AppleWebKit/537.36 (KHTML, like Gecko) Chrome/107.0.0.0 Safari/537.36 Edg/107.0.1418.26" etag="2pga1cVEiedjY7OL6W-O" version="20.5.1" type="github">
  <diagram id="ZDGnV2u6HgIc8-NBpoaS" name="Página-1">
    <mxGraphModel dx="2062" dy="754" grid="1" gridSize="10" guides="1" tooltips="1" connect="1" arrows="1" fold="1" page="1" pageScale="1" pageWidth="900" pageHeight="1600" math="0" shadow="0">
      <root>
        <mxCell id="0" />
        <mxCell id="1" parent="0" />
        <mxCell id="8aodCyyR08SuzgnLEOyB-22" style="edgeStyle=orthogonalEdgeStyle;curved=1;orthogonalLoop=1;jettySize=auto;html=1;entryX=0.5;entryY=0;entryDx=0;entryDy=0;fontSize=20;" parent="1" source="bUYaB74NbpEMKJV3gt0t-32" target="8aodCyyR08SuzgnLEOyB-2" edge="1">
          <mxGeometry relative="1" as="geometry" />
        </mxCell>
        <mxCell id="bUYaB74NbpEMKJV3gt0t-32" value="&lt;b&gt;rabbit Mongo&lt;/b&gt;" style="whiteSpace=wrap;html=1;aspect=fixed;fontSize=20;fillColor=#ffcc99;strokeColor=#36393d;rounded=1;" parent="1" vertex="1">
          <mxGeometry x="1340" y="300" width="150" height="150" as="geometry" />
        </mxCell>
        <mxCell id="bUYaB74NbpEMKJV3gt0t-15" value="&lt;b&gt;Banco de dados (Mongo)&lt;/b&gt;" style="shape=cylinder3;whiteSpace=wrap;html=1;boundedLbl=1;backgroundOutline=1;size=15;fontSize=20;fillColor=#dae8fc;strokeColor=#6c8ebf;" parent="1" vertex="1">
          <mxGeometry x="1580" y="780" width="120" height="140" as="geometry" />
        </mxCell>
        <mxCell id="bUYaB74NbpEMKJV3gt0t-18" value="&lt;b&gt;Disparo&lt;/b&gt;" style="text;html=1;align=center;verticalAlign=middle;resizable=0;points=[];autosize=1;strokeColor=none;fillColor=none;fontSize=20;" parent="1" vertex="1">
          <mxGeometry x="339" y="170" width="100" height="40" as="geometry" />
        </mxCell>
        <mxCell id="bUYaB74NbpEMKJV3gt0t-23" style="edgeStyle=orthogonalEdgeStyle;rounded=0;orthogonalLoop=1;jettySize=auto;html=1;fontSize=20;entryX=0.066;entryY=0.502;entryDx=0;entryDy=0;entryPerimeter=0;" parent="1" source="bUYaB74NbpEMKJV3gt0t-19" target="bUYaB74NbpEMKJV3gt0t-28" edge="1">
          <mxGeometry relative="1" as="geometry">
            <mxPoint x="930" y="215" as="targetPoint" />
          </mxGeometry>
        </mxCell>
        <mxCell id="bUYaB74NbpEMKJV3gt0t-19" value="&lt;b&gt;Serviço de Disparo&lt;/b&gt;" style="whiteSpace=wrap;html=1;aspect=fixed;fontSize=20;fillColor=#cdeb8b;strokeColor=#36393d;" parent="1" vertex="1">
          <mxGeometry x="530" y="155" width="120" height="120" as="geometry" />
        </mxCell>
        <mxCell id="bUYaB74NbpEMKJV3gt0t-22" style="edgeStyle=orthogonalEdgeStyle;rounded=0;orthogonalLoop=1;jettySize=auto;html=1;fontSize=20;exitX=0.875;exitY=0.5;exitDx=0;exitDy=0;exitPerimeter=0;entryX=0;entryY=0.5;entryDx=0;entryDy=0;" parent="1" source="bUYaB74NbpEMKJV3gt0t-20" target="bUYaB74NbpEMKJV3gt0t-19" edge="1">
          <mxGeometry relative="1" as="geometry">
            <mxPoint x="500" y="215" as="targetPoint" />
          </mxGeometry>
        </mxCell>
        <mxCell id="bUYaB74NbpEMKJV3gt0t-20" value="&lt;b&gt;Action Site&lt;/b&gt;" style="ellipse;shape=cloud;whiteSpace=wrap;html=1;fontSize=20;fillColor=#ffcccc;strokeColor=#36393d;" parent="1" vertex="1">
          <mxGeometry x="30" y="130" width="255" height="170" as="geometry" />
        </mxCell>
        <mxCell id="bUYaB74NbpEMKJV3gt0t-25" value="&lt;font color=&quot;#000000&quot;&gt;&lt;b&gt;Retorno de status&lt;/b&gt;&lt;/font&gt;" style="text;html=1;align=center;verticalAlign=middle;resizable=0;points=[];autosize=1;strokeColor=none;fillColor=none;fontSize=20;fontColor=#FFF;" parent="1" vertex="1">
          <mxGeometry x="705" y="170" width="190" height="40" as="geometry" />
        </mxCell>
        <mxCell id="8aodCyyR08SuzgnLEOyB-19" style="edgeStyle=orthogonalEdgeStyle;curved=1;orthogonalLoop=1;jettySize=auto;html=1;entryX=0.5;entryY=0;entryDx=0;entryDy=0;fontSize=20;" parent="1" source="bUYaB74NbpEMKJV3gt0t-28" target="bUYaB74NbpEMKJV3gt0t-32" edge="1">
          <mxGeometry relative="1" as="geometry" />
        </mxCell>
        <mxCell id="bUYaB74NbpEMKJV3gt0t-28" value="&lt;b&gt;Action Callback&lt;/b&gt;" style="ellipse;shape=cloud;whiteSpace=wrap;html=1;fontSize=20;fillColor=#ffcccc;strokeColor=#36393d;" parent="1" vertex="1">
          <mxGeometry x="950" y="130" width="255" height="170" as="geometry" />
        </mxCell>
        <mxCell id="zckDhC-CYJVcZF4_sJKA-3" style="edgeStyle=orthogonalEdgeStyle;rounded=0;orthogonalLoop=1;jettySize=auto;html=1;entryX=1;entryY=0.5;entryDx=0;entryDy=0;" edge="1" parent="1" source="-055bP3nuhrPrPAXyXaf-6" target="zckDhC-CYJVcZF4_sJKA-2">
          <mxGeometry relative="1" as="geometry">
            <mxPoint x="800" y="645" as="targetPoint" />
          </mxGeometry>
        </mxCell>
        <mxCell id="-055bP3nuhrPrPAXyXaf-6" value="&lt;b&gt;rabbit SQL&lt;/b&gt;" style="whiteSpace=wrap;html=1;aspect=fixed;fontSize=20;fillColor=#ffcc99;strokeColor=#36393d;rounded=1;" parent="1" vertex="1">
          <mxGeometry x="960" y="570" width="150" height="150" as="geometry" />
        </mxCell>
        <mxCell id="zckDhC-CYJVcZF4_sJKA-1" style="edgeStyle=orthogonalEdgeStyle;rounded=0;orthogonalLoop=1;jettySize=auto;html=1;entryX=1;entryY=0.5;entryDx=0;entryDy=0;" edge="1" parent="1" source="8aodCyyR08SuzgnLEOyB-2" target="-055bP3nuhrPrPAXyXaf-6">
          <mxGeometry relative="1" as="geometry">
            <mxPoint x="1130" y="645" as="targetPoint" />
          </mxGeometry>
        </mxCell>
        <mxCell id="zckDhC-CYJVcZF4_sJKA-5" style="edgeStyle=orthogonalEdgeStyle;orthogonalLoop=1;jettySize=auto;html=1;curved=1;" edge="1" parent="1" source="8aodCyyR08SuzgnLEOyB-2">
          <mxGeometry relative="1" as="geometry">
            <mxPoint x="1640" y="770" as="targetPoint" />
          </mxGeometry>
        </mxCell>
        <mxCell id="8aodCyyR08SuzgnLEOyB-2" value="&lt;font style=&quot;font-size: 20px;&quot;&gt;&lt;b&gt;DataTransform (Mongo)&lt;/b&gt;&lt;/font&gt;" style="rounded=0;whiteSpace=wrap;html=1;fillColor=#e1d5e7;strokeColor=#9673a6;" parent="1" vertex="1">
          <mxGeometry x="1310" y="590" width="210" height="110" as="geometry" />
        </mxCell>
        <mxCell id="8aodCyyR08SuzgnLEOyB-11" value="&lt;b&gt;Banco de dados (SQL)&lt;/b&gt;" style="shape=cylinder3;whiteSpace=wrap;html=1;boundedLbl=1;backgroundOutline=1;size=15;fontSize=20;fillColor=#dae8fc;strokeColor=#6c8ebf;" parent="1" vertex="1">
          <mxGeometry x="370" y="780" width="120" height="140" as="geometry" />
        </mxCell>
        <mxCell id="zckDhC-CYJVcZF4_sJKA-6" style="edgeStyle=orthogonalEdgeStyle;curved=1;orthogonalLoop=1;jettySize=auto;html=1;entryX=0.5;entryY=0;entryDx=0;entryDy=0;entryPerimeter=0;" edge="1" parent="1" source="zckDhC-CYJVcZF4_sJKA-2" target="8aodCyyR08SuzgnLEOyB-11">
          <mxGeometry relative="1" as="geometry" />
        </mxCell>
        <mxCell id="zckDhC-CYJVcZF4_sJKA-2" value="&lt;font style=&quot;font-size: 20px;&quot;&gt;&lt;b&gt;DataTransform&amp;nbsp; &amp;nbsp;(SQL)&lt;/b&gt;&lt;/font&gt;" style="rounded=0;whiteSpace=wrap;html=1;fillColor=#e1d5e7;strokeColor=#9673a6;" vertex="1" parent="1">
          <mxGeometry x="570" y="590" width="210" height="110" as="geometry" />
        </mxCell>
      </root>
    </mxGraphModel>
  </diagram>
</mxfile>
